<?xml version="1.0" encoding="UTF-8" standalone="no"?>
<svg width="16px" height="16px" viewBox="0 0 16 16" version="1.1" xmlns="http://www.w3.org/2000/svg" xmlns:xlink="http://www.w3.org/1999/xlink" xmlns:sketch="http://www.bohemiancoding.com/sketch/ns">
    <!-- Generator: Sketch 3.5.2 (25235) - http://www.bohemiancoding.com/sketch -->
    <title>sales_request</title>
    <desc>Created with Sketch.</desc>
    <defs></defs>
    <g id="Page-1" stroke="none" stroke-width="1" fill="none" fill-rule="evenodd" sketch:type="MSPage">
        <g id="sales_request" sketch:type="MSArtboardGroup">
            <g id="Sales-request" sketch:type="MSLayerGroup" transform="translate(1.000000, 1.000000)">
                <rect id="Rectangle-36" fill="#63BA3C" sketch:type="MSShapeGroup" x="0" y="0" width="14" height="14" rx="2"></rect>
                <g id="Page-1" transform="translate(5.000000, 3.000000)" stroke="#FFFFFF" stroke-width="0.4" fill="#FFFFFF" sketch:type="MSShapeGroup">
                    <path d="M2.23133988,3.52059089 L2.17918653,3.49899064 C2.12213759,3.47533321 2.06466967,3.45248253 2.0072238,3.42965201 C1.77807984,3.33855177 1.54110736,3.24434562 1.34074146,3.09852878 C1.09521274,2.91987794 0.973661252,2.67418766 1.00724669,2.42448388 C1.04155984,2.16941533 1.22979706,1.95292875 1.52370821,1.83052731 C1.6963766,1.7586273 1.89087662,1.72365546 2.11830052,1.72365546 C2.23466975,1.72365546 2.36063167,1.73214632 2.52668442,1.75114486 C2.72147112,1.77345101 2.9261813,1.82451715 3.15256874,1.90726771 C3.20794171,1.92751669 3.2661594,1.93778235 3.32563407,1.93778235 C3.46881873,1.93778235 3.59833104,1.87935477 3.68098253,1.7774645 C3.75937795,1.68079782 3.78639184,1.55821486 3.75505573,1.44115802 C3.72389603,1.32462556 3.63848802,1.22777736 3.52075156,1.17540027 C3.30047256,1.07744282 3.05600234,1.01657488 2.900689,0.99227207 C2.77666767,0.972870161 2.65405768,0.958671674 2.52430278,0.943646287 C2.47587625,0.938039499 2.42703072,0.932392373 2.37756773,0.926382219 L2.37756773,0.335874431 C2.37756773,0.155368106 2.21700597,0.00850251256 2.01963917,0.00850251256 C1.92391075,0.00850251256 1.83393795,0.0426474521 1.76630399,0.10464482 C1.69862592,0.166702693 1.66146803,0.249150722 1.66168855,0.336802173 C1.6621737,0.520374081 1.66303374,0.701606465 1.66407019,0.882798513 C1.66444507,0.931968839 1.6646656,0.959962446 1.65842483,0.966557481 C1.65136814,0.973999586 1.61789297,0.980332433 1.57548667,0.988359418 C1.23795636,1.05239379 0.939370148,1.17634818 0.679287007,1.35846797 C0.283450786,1.63562081 0.0434571605,2.07932351 0.0373046086,2.54539286 C0.031460787,2.98824849 0.239280316,3.39766507 0.607507235,3.66862625 C0.976219302,3.93997061 1.39677599,4.11333736 1.75953398,4.24715406 C2.02563736,4.34529303 2.33123615,4.46608101 2.59019463,4.65800259 C2.92862909,4.90879546 3.05992763,5.22267478 2.98047371,5.59090768 C2.90772364,5.92800073 2.67668319,5.99620993 2.32693598,6.09943131 C2.30547923,6.10578433 2.28362554,6.11223819 2.26137491,6.11887356 C2.09106611,6.16973802 1.90990763,6.19551312 1.7229715,6.19551312 C1.49321007,6.19551312 1.24735057,6.15773788 0.971301671,6.08000924 C0.869178132,6.0512694 0.762820578,6.01815305 0.646164667,5.97880468 C0.592974864,5.96085489 0.537557793,5.95175899 0.481435053,5.95175899 C0.271741091,5.95175899 0.0895461689,6.07484615 0.0280647548,6.25803486 L0.0207213865,6.27991747 C-0.0517420018,6.49575867 0.0716177651,6.72912612 0.301555607,6.81121112 C0.527656374,6.89192467 0.777088324,6.9571288 0.985900199,6.99008381 C1.11975679,7.01120002 1.25253283,7.02471279 1.39309328,7.03901212 C1.44668002,7.04447773 1.50086217,7.04998367 1.55577204,7.056014 L1.55577204,7.66301946 C1.55577204,7.85350909 1.72522082,8.00850251 1.9335255,8.00850251 C2.03472284,8.00850251 2.12967943,7.97244158 2.20104021,7.9070156 C2.2724451,7.84156946 2.31160973,7.75464406 2.31136716,7.66223289 L2.3098235,7.04278359 C2.41401995,7.01805725 2.56353357,6.96628521 2.67511749,6.92764274 C2.69796352,6.91971659 2.71913359,6.9123955 2.73776767,6.90602232 C3.46326158,6.65871857 3.88183358,6.21114355 3.98188421,5.57574112 C4.0910865,4.88225397 3.80460692,4.31937676 3.15340672,3.9479976 C2.86150232,3.78152841 2.54115063,3.64886131 2.23133988,3.52059089 Z" id="Fill-1"></path>
                </g>
            </g>
        </g>
    </g>
</svg>