<?xml version="1.0" encoding="UTF-8" standalone="no"?>
<svg width="16px" height="16px" viewBox="0 0 16 16" version="1.1" xmlns="http://www.w3.org/2000/svg" xmlns:xlink="http://www.w3.org/1999/xlink" xmlns:sketch="http://www.bohemiancoding.com/sketch/ns">
    <!-- Generator: Sketch 3.5.2 (25235) - http://www.bohemiancoding.com/sketch -->
    <title>suggestion</title>
    <desc>Created with Sketch.</desc>
    <defs></defs>
    <g id="Page-1" stroke="none" stroke-width="1" fill="none" fill-rule="evenodd" sketch:type="MSPage">
        <g id="suggestion" sketch:type="MSArtboardGroup">
            <g id="Suggestion" sketch:type="MSLayerGroup" transform="translate(1.000000, 1.000000)">
                <rect id="Rectangle-36" fill="#FF9C23" sketch:type="MSShapeGroup" x="0" y="0" width="14" height="14" rx="2"></rect>
                <g id="Page-1" transform="translate(4.000000, 2.000000)" fill="#FFFFFF" sketch:type="MSShapeGroup">
                    <path d="M2.4916,9 C1.9396,9 1.4916,8.552 1.4916,8 L1.4916,6 L4.4916,6 L4.4916,8 C4.4916,8.552 4.0436,9 3.4916,9 L2.4916,9 Z" id="Fill-4"></path>
                    <path d="M4.49,7.5528 L3.49,7.5528 L3.49,6.7398 C3.492,6.6268 3.501,6.5218 3.521,6.4208 C3.587,6.0748 3.776,5.8148 3.963,5.5768 L4.205,5.2798 C4.308,5.1538 4.412,5.0288 4.51,4.8988 C4.921,4.3588 5.062,3.7818 4.941,3.1348 C4.772,2.2308 3.937,1.5468 2.999,1.5428 C2.046,1.5468 1.211,2.2308 1.042,3.1348 C0.922,3.7818 1.063,4.3588 1.473,4.8988 C1.573,5.0298 1.677,5.1568 1.782,5.2838 L2.02,5.5778 C2.236,5.8438 2.434,6.0898 2.498,6.4218 C2.517,6.5228 2.526,6.6288 2.528,6.7328 L2.528,7.5528 L1.528,7.5528 L1.528,6.7398 C1.527,6.7008 1.524,6.6558 1.516,6.6108 C1.499,6.5238 1.392,6.3918 1.299,6.2758 L1.01,5.9188 C0.897,5.7818 0.785,5.6458 0.677,5.5048 C0.094,4.7378 -0.114,3.8788 0.059,2.9508 C0.318,1.5608 1.547,0.5488 2.98,0.5428 C4.436,0.5488 5.665,1.5608 5.924,2.9508 C6.097,3.8788 5.889,4.7378 5.306,5.5048 C5.2,5.6438 5.089,5.7798 4.977,5.9148 L4.748,6.1978 C4.632,6.3438 4.526,6.4848 4.503,6.6098 C4.494,6.6568 4.491,6.7028 4.49,6.7488 L4.49,7.5528 Z" id="Fill-1"></path>
                </g>
            </g>
        </g>
    </g>
</svg>