<svg width="24" height="24" viewBox="0 0 24 24" fill="none" xmlns="http://www.w3.org/2000/svg">
<path fill-rule="evenodd" clip-rule="evenodd" d="M4 8C4 6.89543 4.89543 6 6 6H18C19.1046 6 20 6.89543 20 8V16C20 17.1046 19.1046 18 18 18H6C4.89543 18 4 17.1046 4 16V8ZM6 7.5C5.72386 7.5 5.5 7.72386 5.5 8V8.52859L12 12.128L18.5 8.52859V8C18.5 7.72386 18.2761 7.5 18 7.5H6ZM18.5 10.2432L12.3633 13.6414C12.1373 13.7666 11.8627 13.7666 11.6367 13.6414L5.5 10.2432V16C5.5 16.2761 5.72386 16.5 6 16.5H18C18.2761 16.5 18.5 16.2761 18.5 16V10.2432Z" fill="#357DE8"/>
</svg>
