<svg width="24" height="24" viewBox="0 0 24 24" fill="none" xmlns="http://www.w3.org/2000/svg">
<path fill-rule="evenodd" clip-rule="evenodd" d="M20 6.74994C20 6.33573 19.6642 5.99994 19.25 5.99994H4.75C4.33579 5.99994 4 6.33573 4 6.74994V17.2499C4 17.6642 4.33579 17.9999 4.75 17.9999H19.25C19.6642 17.9999 20 17.6642 20 17.2499V6.74994ZM18.5 7.49994V16.4999H5.5V7.49994H18.5ZM8 11V8.5H6.5V11H8ZM14.5 12C14.5 10.5295 13.5452 9 12 9C10.4548 9 9.5 10.5295 9.5 12C9.5 13.4705 10.4548 15 12 15C13.5452 15 14.5 13.4705 14.5 12ZM12 10.5C12.3878 10.5 13 10.9852 13 12C13 13.0148 12.3878 13.5 12 13.5C11.6122 13.5 11 13.0148 11 12C11 10.9852 11.6122 10.5 12 10.5ZM17.5 15.5V13H16V15.5H17.5Z" fill="#6A9A23"/>
</svg>
