<svg width="24" height="24" viewBox="0 0 24 24" fill="none" xmlns="http://www.w3.org/2000/svg">
<path fill-rule="evenodd" clip-rule="evenodd" d="M7.5 6.5C7.22386 6.5 7 6.72386 7 7V14H12V15.5H5.5V16C5.5 16.2761 5.72386 16.5 6 16.5H12V18H6C4.89543 18 4 17.1046 4 16V14.75C4 14.3358 4.33579 14 4.75 14H5.5V7C5.5 5.89543 6.39543 5 7.5 5H16.5C17.6046 5 18.5 5.89543 18.5 7V8.5H17V7C17 6.72386 16.7761 6.5 16.5 6.5H7.5ZM13.5 12C13.5 10.8954 14.3954 10 15.5 10H18C19.1046 10 20 10.8954 20 12V18C20 19.1046 19.1046 20 18 20H15.5C14.3954 20 13.5 19.1046 13.5 18V12ZM15.5 11.5C15.2239 11.5 15 11.7239 15 12V18C15 18.2761 15.2239 18.5 15.5 18.5H18C18.2761 18.5 18.5 18.2761 18.5 18V12C18.5 11.7239 18.2761 11.5 18 11.5H15.5Z" fill="#357DE8"/>
</svg>
