<svg width="24" height="24" viewBox="0 0 24 24" fill="none" xmlns="http://www.w3.org/2000/svg">
<path fill-rule="evenodd" clip-rule="evenodd" d="M10 6.5C9.72386 6.5 9.5 6.72386 9.5 7V8H14.5V7C14.5 6.72386 14.2761 6.5 14 6.5H10ZM16 8V7C16 5.89543 15.1046 5 14 5H10C8.89543 5 8 5.89543 8 7V8H7C5.89543 8 5 8.89543 5 10V17C5 18.1046 5.89543 19 7 19H17C18.1046 19 19 18.1046 19 17V10C19 8.89543 18.1046 8 17 8H16ZM7 9.5C6.72386 9.5 6.5 9.72386 6.5 10V12H17.5V10C17.5 9.72386 17.2761 9.5 17 9.5H7ZM17.5 13.5H12.75V15H11.25V13.5H6.5V17C6.5 17.2761 6.72386 17.5 7 17.5H17C17.2761 17.5 17.5 17.2761 17.5 17V13.5Z" fill="#E56910"/>
</svg>
