<svg width="24" height="24" viewBox="0 0 24 24" fill="none" xmlns="http://www.w3.org/2000/svg">
<path fill-rule="evenodd" clip-rule="evenodd" d="M8.5 6.5V8.5H10V6.5H14V8.5H15.5V6.5H17C17.2761 6.5 17.5 6.72386 17.5 7V10H6.5V7C6.5 6.72386 6.72386 6.5 7 6.5H8.5ZM6.5 11.5V17C6.5 17.2761 6.72386 17.5 7 17.5H11.5V19H7C5.89543 19 5 18.1046 5 17V7C5 5.89543 5.89543 5 7 5H8.5V4H10V5H14V4H15.5V5H17C18.1046 5 19 5.89543 19 7V11.5H6.5ZM16.25 16.2502V14.0002H17.75V16.2502H20V17.7502H17.75V20.0002H16.25V17.7502H14V16.2502H16.25Z" fill="#6A9A23"/>
</svg>
