<svg width="24" height="24" viewBox="0 0 24 24" fill="none" xmlns="http://www.w3.org/2000/svg">
<path fill-rule="evenodd" clip-rule="evenodd" d="M6 6C6 4.89543 6.89543 4 8 4H16C17.1046 4 18 4.89543 18 6V18.5H19V20H5V18.5H6V6ZM7.5 18.5H9.5V14.75C9.5 14.3358 9.83579 14 10.25 14H13.75C14.1642 14 14.5 14.3358 14.5 14.75V18.5H16.5V6C16.5 5.72386 16.2761 5.5 16 5.5H8C7.72386 5.5 7.5 5.72386 7.5 6V18.5ZM13 18.5V15.5H11V18.5H13ZM11 8.5H9V7H11V8.5ZM15 8.5H13V7H15V8.5ZM9 10H11V11.5H9V10ZM13 10H15V11.5H13V10Z" fill="#6A9A23"/>
</svg>
