<svg width="24" height="24" viewBox="0 0 24 24" fill="none" xmlns="http://www.w3.org/2000/svg">
<path fill-rule="evenodd" clip-rule="evenodd" d="M17.5 4.25V5V6.5H19H19.75V8H19H17.5V9.5V10.25H16V9.5V8H14.5H13.75V6.5H14.5H16V5V4.25H17.5ZM5 7C5 5.89543 5.89543 5 7 5H12.1856V6.5H7C6.72386 6.5 6.5 6.72386 6.5 7V14C6.5 14.2761 6.72386 14.5 7 14.5H17C17.2761 14.5 17.5 14.2761 17.5 14V11.966H19V14C19 15.1046 18.1046 16 17 16H13V17.5H16V19H13H11H8V17.5H11V16H7C5.89543 16 5 15.1046 5 14V7Z" fill="#6A9A23"/>
</svg>
