<svg width="24" height="24" viewBox="0 0 24 24" fill="none" xmlns="http://www.w3.org/2000/svg">
<path fill-rule="evenodd" clip-rule="evenodd" d="M12 5.5C8.41015 5.5 5.5 8.41015 5.5 12C5.5 14.0124 6.4143 15.8119 7.85214 17.0049C8.177 15.8481 9.23945 15 10.5 15H13.5C14.7605 15 15.823 15.8481 16.1479 17.0049C17.5857 15.8119 18.5 14.0124 18.5 12C18.5 8.41015 15.5899 5.5 12 5.5ZM14.75 17.8915V17.75C14.75 17.0596 14.1904 16.5 13.5 16.5H10.5C9.80964 16.5 9.25 17.0596 9.25 17.75V17.8915C9.27017 17.9009 9.2904 17.9103 9.31068 17.9195C10.1293 18.2921 11.0393 18.5 12 18.5C12.9607 18.5 13.8707 18.2921 14.6893 17.9195C14.7096 17.9103 14.7298 17.9009 14.75 17.8915ZM4 12C4 7.58172 7.58172 4 12 4C16.4183 4 20 7.58172 20 12C20 15.0187 18.3277 17.6458 15.8626 19.0073C15.6828 19.1066 15.4987 19.1992 15.3107 19.2848C14.3009 19.7444 13.1793 20 12 20C10.8207 20 9.69914 19.7444 8.68932 19.2848C8.50132 19.1992 8.31723 19.1066 8.13741 19.0073C5.67228 17.6458 4 15.0187 4 12ZM12 8.5C10.8954 8.5 10 9.39543 10 10.5C10 11.6046 10.8954 12.5 12 12.5C13.1046 12.5 14 11.6046 14 10.5C14 9.39543 13.1046 8.5 12 8.5ZM8.5 10.5C8.5 8.567 10.067 7 12 7C13.933 7 15.5 8.567 15.5 10.5C15.5 12.433 13.933 14 12 14C10.067 14 8.5 12.433 8.5 10.5Z" fill="#1D7AFC"/>
</svg>
