<svg width="24" height="24" viewBox="0 0 24 24" fill="none" xmlns="http://www.w3.org/2000/svg">
<path fill-rule="evenodd" clip-rule="evenodd" d="M10.0402 5.52026L7.15132 8.52026C6.99256 8.68512 6.76722 8.76847 6.53939 8.74659C6.31157 8.72472 6.1062 8.60001 5.98172 8.40795L4.87061 6.69366L6.12933 5.87782L6.72641 6.79902L8.95973 4.4798L10.0402 5.52026ZM19 7.50003L11 7.50003L11 6.00003L19 6.00003L19 7.50003ZM10.0402 10.7703L7.15132 13.7703C6.99257 13.9351 6.76722 14.0185 6.53939 13.9966C6.31157 13.9747 6.1062 13.85 5.98172 13.6579L4.87061 11.9437L6.12933 11.1278L6.72641 12.049L8.95973 9.7298L10.0402 10.7703ZM19 12.75L11 12.75L11 11.25L19 11.25L19 12.75ZM10.0402 16.0203L7.15132 19.0203C6.99256 19.1851 6.76722 19.2685 6.53939 19.2466C6.31157 19.2247 6.1062 19.1 5.98172 18.9079L4.87061 17.1937L6.12933 16.3778L6.72641 17.299L8.95973 14.9798L10.0402 16.0203ZM19 18L11 18L11 16.5L19 16.5L19 18Z" fill="#8270DB"/>
</svg>
