<svg width="24" height="24" viewBox="0 0 24 24" fill="none" xmlns="http://www.w3.org/2000/svg">
<path fill-rule="evenodd" clip-rule="evenodd" d="M9 5.5C7.61929 5.5 6.5 6.61929 6.5 8C6.5 9.38071 7.61929 10.5 9 10.5C10.3807 10.5 11.5 9.38071 11.5 8C11.5 6.61929 10.3807 5.5 9 5.5ZM5 8C5 5.79086 6.79086 4 9 4C11.2091 4 13 5.79086 13 8C13 10.2091 11.2091 12 9 12C6.79086 12 5 10.2091 5 8ZM16.25 12.75V15H17.75V12.75H20V11.25H17.75V9H16.25V11.25H14V12.75H16.25ZM7.75 14.5C6.50736 14.5 5.5 15.5074 5.5 16.75V19H4V16.75C4 14.6789 5.67893 13 7.75 13H10.25C12.3211 13 14 14.6789 14 16.75V19H12.5V16.75C12.5 15.5074 11.4926 14.5 10.25 14.5H7.75Z" fill="#1D7AFC"/>
</svg>
